Coordinates
version=1
nRows=10
nColumns=33
inDegrees=yes

Units are S.I. units (second, meters, Newtons, ...)
Angles are in degrees.

endheader
time	ground_thorax_rot_x	ground_thorax_rot_y	ground_thorax_rot_z	ground_thorax_tx	ground_thorax_ty	ground_thorax_tz	clav_prot_r	clav_elev_r	scapula_abduction_r	scapula_elevation_r	scapula_upward_rot_r	scapula_winging_r	shoulder_elv_r	plane_of_elev_r	axial_rot_r	elbow_flexion_r	pro_sup_r	wrist_flex_r	wrist_dev_r	clav_prot_l	clav_elev_l	scapula_abduction_l	scapula_elevation_l	scapula_upward_rot_l	scapula_winging_l	shoulder_elv_l	plane_of_elev_l	axial_rot_l	elbow_flexion_l	pro_sup_l	wrist_flex_l	wrist_dev_l
      5.08000000	    -30.68265449	    -30.16218903	     36.00104283	    -70.00013533	    861.46745894	    -50.56092552	     25.18589300	    -45.00000000	     42.89379261	    -45.00000000	    -32.41543012	   3482.40255402	   -455.87342604	    144.99167158	   -179.99999979	   2514.33763935	     63.95448763	     31.59637771	     14.08294661	     -3.40270818	     34.00917749	    -30.32850247	    -45.00000000	    -45.00000000	   2251.99138274	  -7121.86881987	     26.66473691	     43.03521110	   2870.23822892	     43.97635991	     12.82659623	    -22.77716624
      5.09000000	    -30.36765423	    -30.63878986	     36.62672677	    -69.70567478	    861.15673387	    -50.56536790	     24.97266642	    -45.00000000	     42.81585161	    -45.00000000	    -32.37343408	   3482.41661436	   -455.66609931	    144.82662511	   -179.99999979	   2513.98335856	     64.39541736	     31.62123346	     14.15816426	     -3.49178494	     33.96791810	    -30.12893806	    -45.00000000	    -45.00000000	   2251.83000122	  -7121.67684618	     26.21807019	     42.84807215	   2870.35133893	     44.04769173	     12.85216246	    -22.87408991
      5.10000000	    -30.51533862	    -30.43679904	     36.38632257	    -69.28281356	    860.77758801	    -50.58182274	     25.18789493	    -45.00000000	     42.92563058	    -45.00000000	    -32.39826109	   3482.19283974	   -456.03463585	    144.85582639	   -179.99999979	   2514.22228061	     64.59514980	     31.75947341	     13.91967738	     -3.54634514	     34.00626395	    -30.24181552	    -45.00000000	    -45.00000000	   2252.05950833	  -7122.00871894	     26.68782943	     42.82029371	   2870.31428021	     44.13167462	     12.75134078	    -22.93426092
      5.11000000	    -29.99543031	    -30.88885882	     37.17709380	    -68.73205683	    860.35022590	    -50.60298116	     24.87088020	    -45.00000000	     43.03856811	    -45.00000000	    -32.23603968	   3482.28629055	   -455.57859421	    145.00526102	   -179.99999979	   2514.15214132	     64.74409802	     31.85466279	     13.88661193	     -3.37271678	     33.98811561	    -30.00842342	    -45.00000000	    -45.00000000	   2251.65808619	  -7121.81228541	     26.14489078	     42.88737879	   2870.34317206	     44.16031366	     12.71614743	    -22.98157286
      5.12000000	    -30.30709934	    -30.60277692	     36.73465815	    -68.02859972	    859.87072906	    -50.62230695	     25.18458096	    -45.00000000	     42.96982591	    -45.00000000	    -32.27193614	   3481.96009579	   -456.19780072	    144.68864353	   -179.99999979	   2514.23600810	     64.81168062	     31.89694697	     13.82206255	     -3.70984025	     33.96939871	    -30.20525478	    -45.00000000	    -45.00000000	   2252.05633803	  -7122.20404540	     26.80984007	     43.02057336	   2870.35534366	     44.17656627	     12.74086614	    -23.06223095
      5.13000000	    -30.21507117	    -30.87067010	     37.01476309	    -67.17860350	    859.35562972	    -50.63281238	     25.02303036	    -45.00000000	     43.05140249	    -45.00000000	    -32.07354153	   3482.04933844	   -456.12134482	    144.84745710	   -179.99999979	   2514.14361090	     64.82665146	     32.00328705	     13.88531474	     -3.64043926	     33.96225911	    -30.04730672	    -45.00000000	    -45.00000000	   2251.84539184	  -7122.01494989	     26.67286943	     43.14216600	   2870.35090250	     44.13878371	     12.76590047	    -23.09704758
      5.14000000	    -29.91050992	    -31.22000255	     37.62271646	    -66.17566698	    858.80752228	    -50.62993905	     24.96745705	    -45.00000000	     43.14669315	    -45.00000000	    -31.93308301	   3482.05394206	   -456.07694817	    144.88054191	   -179.99999979	   2514.03199258	     64.72499567	     32.03776729	     13.82770432	     -3.47827274	     33.97419373	    -29.95432456	    -45.00000000	    -45.00000000	   2251.75912455	  -7121.82533307	     26.55495264	     43.24763221	   2870.19494274	     44.09295373	     12.70239398	    -22.98845045
      5.15000000	    -29.81976397	    -31.33570285	     37.73571985	    -65.02127845	    858.23044482	    -50.61212482	     25.04490150	    -45.00000000	     43.24729207	    -45.00000000	    -31.90864731	   3481.95169769	   -456.27413622	    144.76027769	   -179.99999979	   2514.06833929	     64.60561135	     32.09495042	     13.95157715	     -3.77685591	     33.92275102	    -29.89469328	    -45.00000000	    -45.00000000	   2251.80064090	  -7122.00465060	     26.73281001	     43.53083268	   2870.39891095	     43.92766242	     12.83489465	    -22.83162029
      5.16000000	    -29.64186608	    -31.53560109	     38.10652602	    -63.72115248	    857.62758866	    -50.58040380	     25.03686447	    -45.00000000	     43.27701628	    -45.00000000	    -31.74737587	   3482.02344249	   -456.27819053	    144.85867091	   -179.99999979	   2514.02914748	     64.39739848	     32.15935347	     13.97463372	     -3.65843255	     33.94549740	    -29.84601958	    -45.00000000	    -45.00000000	   2251.63409786	  -7121.91726676	     26.70667624	     43.80803709	   2870.22680098	     43.68615934	     12.83897665	    -23.03465905
      5.17000000	    -29.40860940	    -31.80081785	     38.55179275	    -62.28755607	    857.00247760	    -50.53802024	     24.93233988	    -45.00000000	     43.27874905	    -45.00000000	    -31.73483650	   3482.13147730	   -456.27231334	    144.86260805	   -179.99999979	   2514.02738584	     64.20041763	     32.15008861	     14.02489752	     -3.71695616	     33.85985465	    -29.70318306	    -45.00000000	    -45.00000000	   2251.57850136	  -7121.83595409	     26.74877558	     44.14206172	   2870.26052265	     43.55203280	     12.92215886	    -22.82551720
